<?xml version="1.0" ?><svg id="Layer_1" style="enable-background:new 0 0 48 48;" version="1.1" viewBox="0 0 48 48" xml:space="preserve" xmlns="http://www.w3.org/2000/svg" xmlns:xlink="http://www.w3.org/1999/xlink"><style type="text/css">
	.st0{fill:#FF4676;}
	.st1{fill:#0F1C70;}
	.st2{fill:#FFE92E;}
	.st3{fill:#17D5D1;}
	.st4{fill:#FFFFFF;}
	.st5{fill:#EA2461;}
	.st6{fill:#F2F2F2;}
</style><g><g><g><g><g><g><g><g><circle class="st1" cx="24" cy="24" r="24"/></g></g></g></g></g></g></g><g><g><path class="st0" d="M21.3,22.9c-0.4-0.4-0.9-0.8-1.4-1.1C15.5,18.8,9.6,20,6.6,24.4C6.3,24.9,6,25.4,5.8,26     c2.9-1.8,6.7-1.9,9.7,0.1c0.9,0.6,1.6,1.3,2.2,2.1L21.3,22.9z"/><path class="st0" d="M25.1,26.7c0.4,0.4,0.8,0.9,1.1,1.4c2.9,4.4,1.8,10.3-2.6,13.2c-0.5,0.3-1.1,0.6-1.6,0.9     c1.8-2.9,1.9-6.7-0.1-9.7c-0.6-0.9-1.3-1.6-2.1-2.2L25.1,26.7z"/></g><g><g><path class="st6" d="M36.5,18.7c-1,2.8-2.5,5.8-5,8.3c-4.1,4.1-8.5,6.8-12,7.5l-5.9-5.9c0.8-3.5,3.5-8,7.5-12      c2.5-2.5,5.5-4,8.3-5L36.5,18.7z"/></g><g><path class="st0" d="M36.5,18.7c1.6-4.7,1.7-8.9,1.7-8.9s-4.1,0.1-8.9,1.7L36.5,18.7z"/></g></g><ellipse class="st1" cx="27.8" cy="20.2" rx="3.6" ry="3.6" transform="matrix(0.7071 -0.7071 0.7071 0.7071 -6.0975 25.5921)"/><ellipse class="st4" cx="27.8" cy="20.2" rx="2.5" ry="2.5" transform="matrix(0.7071 -0.7071 0.7071 0.7071 -6.0975 25.5921)"/><g><path class="st0" d="M18.2,31.8C15.3,34.6,12,36,12,36s1.4-3.3,4.2-6.2s6.2-4.2,6.2-4.2S21,28.9,18.2,31.8z"/></g></g></g></svg>